<?xml version="1.0" encoding="UTF-8" standalone="no"?>
<svg
   xmlns:dc="http://purl.org/dc/elements/1.1/"
   xmlns:cc="http://creativecommons.org/ns#"
   xmlns:rdf="http://www.w3.org/1999/02/22-rdf-syntax-ns#"
   xmlns:svg="http://www.w3.org/2000/svg"
   xmlns="http://www.w3.org/2000/svg"
   xmlns:sodipodi="http://sodipodi.sourceforge.net/DTD/sodipodi-0.dtd"
   xmlns:inkscape="http://www.inkscape.org/namespaces/inkscape"
   inkscape:export-ydpi="288"
   inkscape:export-xdpi="288"
   inkscape:export-filename="C:\Downloads\123\3d-bars-graphic.png"
   inkscape:version="1.0 (4035a4fb49, 2020-05-01)"
   sodipodi:docname="3d-bars-graphic.svg"
   xml:space="preserve"
   viewBox="0 0 50 50"
   height="50"
   width="50"
   y="0px"
   x="0px"
   id="Capa_1"
   version="1.1"><metadata
   id="metadata49"><rdf:RDF><cc:Work
       rdf:about=""><dc:format>image/svg+xml</dc:format><dc:type
         rdf:resource="http://purl.org/dc/dcmitype/StillImage" /><dc:title></dc:title></cc:Work></rdf:RDF></metadata><defs
   id="defs47" /><sodipodi:namedview
   inkscape:current-layer="Capa_1"
   inkscape:window-maximized="1"
   inkscape:window-y="-8"
   inkscape:window-x="-8"
   inkscape:cy="24.426802"
   inkscape:cx="10.344181"
   inkscape:zoom="6.6543496"
   fit-margin-bottom="0"
   fit-margin-right="0"
   fit-margin-left="0"
   fit-margin-top="0"
   showgrid="false"
   id="namedview45"
   inkscape:window-height="1017"
   inkscape:window-width="1920"
   inkscape:pageshadow="2"
   inkscape:pageopacity="0"
   guidetolerance="10"
   gridtolerance="10"
   objecttolerance="10"
   borderopacity="1"
   bordercolor="#666666"
   pagecolor="#ff61ff" />
<circle
   r="25"
   cy="25"
   cx="25"
   id="path874"
   style="fill:#ffffff;stroke-width:1.36583;stroke-dashoffset:125.92" /><g
   transform="translate(9.033,9.033)"
   id="g12">
	<g
   id="g10">
		<polygon
   id="polygon2"
   points="17.849,14.094 17.869,25.223 19.418,25.871 23.389,23.865 23.386,21.834 23.365,7.389 18.793,5.742 14.607,7.378 14.607,12.565 17.51,13.61 17.848,13.732 " />
		<polygon
   id="polygon4"
   points="23.899,22.049 25.451,22.693 29.418,20.689 29.396,1.648 24.824,0 20.639,1.637 20.639,5.861 23.539,6.907 23.877,7.029 23.879,7.389 " />
		<polygon
   id="polygon6"
   points="11.786,22.175 11.805,28.322 13.39,28.98 17.358,26.977 17.334,14.095 14.607,13.11 12.764,12.445 8.578,14.082 8.578,20.661 11.447,21.695 11.785,21.816 " />
		<polygon
   id="polygon8"
   points="11.291,28.107 11.272,22.177 6.701,20.529 2.516,22.165 2.516,29.927 7.328,31.934 11.295,29.927 " />
	</g>
</g>
<g
   transform="translate(9.033,9.033)"
   id="g14">
</g>
<g
   transform="translate(9.033,9.033)"
   id="g16">
</g>
<g
   transform="translate(9.033,9.033)"
   id="g18">
</g>
<g
   transform="translate(9.033,9.033)"
   id="g20">
</g>
<g
   transform="translate(9.033,9.033)"
   id="g22">
</g>
<g
   transform="translate(9.033,9.033)"
   id="g24">
</g>
<g
   transform="translate(9.033,9.033)"
   id="g26">
</g>
<g
   transform="translate(9.033,9.033)"
   id="g28">
</g>
<g
   transform="translate(9.033,9.033)"
   id="g30">
</g>
<g
   transform="translate(9.033,9.033)"
   id="g32">
</g>
<g
   transform="translate(9.033,9.033)"
   id="g34">
</g>
<g
   transform="translate(9.033,9.033)"
   id="g36">
</g>
<g
   transform="translate(9.033,9.033)"
   id="g38">
</g>
<g
   transform="translate(9.033,9.033)"
   id="g40">
</g>
<g
   transform="translate(9.033,9.033)"
   id="g42">
</g>
</svg>
