<?xml version="1.0" encoding="iso-8859-1"?>
<!-- Generator: Adobe Illustrator 19.0.0, SVG Export Plug-In . SVG Version: 6.00 Build 0)  -->
<svg version="1.1" id="Capa_1" xmlns="http://www.w3.org/2000/svg" xmlns:xlink="http://www.w3.org/1999/xlink" x="0px" y="0px"
	 viewBox="0 0 512 512" style="enable-background:new 0 0 512 512;" xml:space="preserve">
<path style="fill:#5F3273;" d="M52.695,411.565C19.651,368.446,0,314.522,0,256C0,114.615,114.615,0,256,0s256,114.615,256,256
	c0,58.522-19.651,112.446-52.696,155.565H52.695z"/>
<path style="fill:#BE234B;" d="M467.677,400C421.598,467.605,343.987,512,256,512S90.402,467.605,44.322,400H467.677z"/>
<path style="fill:#82E1E1;" d="M306.5,260v200c0,5.523-4.477,10-10,10h-80c-5.523,0-10-4.477-10-10V260c0-5.523,4.477-10,10-10h80
	C302.023,250,306.5,254.477,306.5,260z M215.5,230h80c5.523,0,10-4.477,10-10v-10c0-5.523-4.477-10-10-10h-80
	c-5.523,0-10,4.477-10,10v10C205.5,225.523,209.977,230,215.5,230z"/>
<path style="fill:#50C8C8;" d="M245.5,470h-29c-5.523,0-10-4.477-10-10V260c0-5.523,4.477-10,10-10h29c-5.523,0-10,4.477-10,10v200
	C235.5,465.523,239.977,470,245.5,470z M215.5,230h29.503c-5.523,0-10-4.477-10-10v-10c0-5.523,4.477-10,10-10H215.5
	c-5.523,0-10,4.477-10,10v10C205.5,225.523,209.977,230,215.5,230z"/>
<path style="fill:#F7D139;" d="M436,210v220c-10.396,9.639-21.593,18.424-33.482,26.246H347c-5.523,0-10-4.477-10-10V210
	c0-5.523,4.477-10,10-10h79C431.523,200,436,204.477,436,210z"/>
<path style="fill:#8278D2;" d="M176,50v200v210c0,5.523-4.477,10-10,10h-44.518C104.873,459.072,89.609,446.271,76,431.884V250
	V80.116V50c0-5.523,4.477-10,10-10h38.548H166c3.452,0,6.495,1.749,8.292,4.409c0.719,1.064,1.238,2.274,1.505,3.576
	C175.93,48.636,176,49.31,176,50z"/>
<path style="fill:#5F55AF;" d="M115,40c-5.523,0-10,4.477-10,10v3.795V160v298.205c-10.327-8.03-20.023-16.831-29-26.321V160V80.116
	V50c0-5.523,4.477-10,10-10H115z"/>
<path style="fill:#EBB410;" d="M376,460h-29c-5.523,0-10-4.477-10-10V210c0-5.523,4.477-10,10-10h29c-5.523,0-10,4.477-10,10v240
	C366,455.523,370.477,460,376,460z M426,100h-79c-5.523,0-10,4.477-10,10v10c0,5.523,4.477,10,10,10h79c5.523,0,10-4.477,10-10v-10
	C436,104.477,431.523,100,426,100z M426,50h-79c-5.523,0-10,4.477-10,10v10c0,5.523,4.477,10,10,10h79c5.523,0,10-4.477,10-10V60
	C436,54.477,431.523,50,426,50z M426,150h-79c-5.523,0-10,4.477-10,10v10c0,5.523,4.477,10,10,10h79c5.523,0,10-4.477,10-10v-10
	C436,154.477,431.523,150,426,150z"/>
<path style="fill:#F7D139;" d="M436,160v10c0,5.523-4.477,10-10,10h-50c-5.523,0-10-4.477-10-10v-10c0-5.523,4.477-10,10-10h50
	C431.523,150,436,154.477,436,160z M426,100h-50c-5.523,0-10,4.477-10,10v10c0,5.523,4.477,10,10,10h50c5.523,0,10-4.477,10-10v-10
	C436,104.477,431.523,100,426,100z M426,50h-50c-5.523,0-10,4.477-10,10v10c0,5.523,4.477,10,10,10h50c5.523,0,10-4.477,10-10V60
	C436,54.477,431.523,50,426,50z"/>
<path style="fill:#FF4B6E;" d="M443.754,430C396.998,480.427,330.191,512,256,512s-140.998-31.573-187.754-82H443.754z"/>
<g>
</g>
<g>
</g>
<g>
</g>
<g>
</g>
<g>
</g>
<g>
</g>
<g>
</g>
<g>
</g>
<g>
</g>
<g>
</g>
<g>
</g>
<g>
</g>
<g>
</g>
<g>
</g>
<g>
</g>
</svg>
