<?xml version="1.0" encoding="UTF-8" standalone="no"?>
<!-- Created with Inkscape (http://www.inkscape.org/) -->

<svg
   width="64mm"
   height="64mm"
   viewBox="0 0 64 64"
   version="1.1"
   id="svg5"
   inkscape:version="1.1.1 (3bf5ae0d25, 2021-09-20)"
   sodipodi:docname="logo.svg"
   xmlns:inkscape="http://www.inkscape.org/namespaces/inkscape"
   xmlns:sodipodi="http://sodipodi.sourceforge.net/DTD/sodipodi-0.dtd"
   xmlns="http://www.w3.org/2000/svg"
   xmlns:svg="http://www.w3.org/2000/svg">
  <sodipodi:namedview
     id="namedview7"
     pagecolor="#ffffff"
     bordercolor="#666666"
     borderopacity="1.0"
     inkscape:pageshadow="2"
     inkscape:pageopacity="0.0"
     inkscape:pagecheckerboard="0"
     inkscape:document-units="mm"
     showgrid="false"
     inkscape:zoom="2"
     inkscape:cx="157"
     inkscape:cy="128.25"
     inkscape:window-width="2400"
     inkscape:window-height="1271"
     inkscape:window-x="2391"
     inkscape:window-y="-9"
     inkscape:window-maximized="1"
     inkscape:current-layer="layer1" />
  <defs
     id="defs2">
    <inkscape:perspective
       sodipodi:type="inkscape:persp3d"
       inkscape:vp_x="57.204127 : 58.823108 : 1"
       inkscape:vp_y="0 : 1000 : 0"
       inkscape:vp_z="121.20413 : 58.823108 : 1"
       inkscape:persp3d-origin="89.204127 : 48.156441 : 1"
       id="perspective33812" />
    <inkscape:path-effect
       effect="spiro"
       id="path-effect1169"
       is_visible="true"
       lpeversion="1" />
    <filter
       style="color-interpolation-filters:sRGB"
       id="filter22188"
       inkscape:label="фильтр0" />
  </defs>
  <g
     inkscape:label="Слой 1"
     inkscape:groupmode="layer"
     id="layer1">
    <path
       style="color:#000000;fill:#14cfff;stroke:#14cfff;stroke-width:5.7;stroke-miterlimit:4;stroke-dasharray:none;stroke-opacity:1"
       d="m 133.80619,89.348987 c 0,0 0.0185,-0.83657 -0.43108,-2.288997 -0.44958,-1.452426 -1.36715,-3.522142 -3.23917,-5.993579 -3.74406,-4.942875 -11.30529,-11.492083 -26.57388,-17.923372 -3.815756,-1.607235 -6.176821,-2.990699 -7.448201,-4.204861 -0.635687,-0.607082 -0.998663,-1.171595 -1.136457,-1.69961 -0.137798,-0.528014 -0.05151,-1.020173 0.214569,-1.487258 0.532135,-0.934167 1.786957,-1.764578 3.399088,-2.541852 1.612131,-0.777279 3.580851,-1.502195 5.539421,-2.23156 1.95856,-0.729365 3.90695,-1.463115 5.47965,-2.258694 1.5727,-0.795579 2.77072,-1.652294 3.22585,-2.633778 0.22757,-0.490743 0.26819,-1.013086 0.0756,-1.570442 -0.19253,-0.557356 -0.61727,-1.149568 -1.3186,-1.78493 -1.40266,-1.270725 -3.91272,-2.714772 -7.89773,-4.391129 l -0.0131,0.03151 c 3.98328,1.675631 6.49088,3.118867 7.88808,4.38464 0.6986,0.632885 1.11943,1.221224 1.30935,1.771015 0.18993,0.549791 0.14986,1.061079 -0.0745,1.544896 -0.44871,0.967633 -1.64011,1.823473 -3.21023,2.617746 -1.57012,0.794275 -3.5179,1.52781 -5.47639,2.257146 -1.95849,0.729337 -3.92782,1.454498 -5.542249,2.232886 -1.614434,0.778387 -2.874645,1.609126 -3.413845,2.555697 -0.269602,0.473287 -0.357885,0.976423 -0.217906,1.512819 0.13998,0.536394 0.507104,1.105605 1.145725,1.715488 1.277248,1.219768 3.64094,2.603567 7.458505,4.211564 15.26468,6.429644 22.82057,12.975707 26.56005,17.912543 1.86974,2.468417 2.78546,4.534476 3.23387,5.983133 0.44842,1.44866 0.42949,2.278309 0.42949,2.278309 z"
       id="path68685" />
    <path
       style="color:#000000;fill:#14cfff;stroke:#14cfff;stroke-width:5.7;stroke-miterlimit:4;stroke-dasharray:none;stroke-opacity:1"
       d="m 49.281723,5.1855815 c 0,0 -1.340801,0.3669278 -2.891008,1.3431053 -1.549682,0.9758608 -3.552893,2.6206238 -5.638938,5.3043872 -4.172056,5.367481 -8.668894,14.842224 -10.974866,31.586397 -0.54377,3.94844 -1.292819,6.382454 -1.829109,7.362767 -0.08131,0.148639 -0.03889,0.07032 -0.09714,0.149792 -0.197575,-0.13862 -0.809274,-0.495224 -1.694946,-1.52344 -1.036381,-1.203171 -2.221815,-2.869211 -3.437065,-4.577643 -1.215222,-1.708395 -2.457804,-3.45929 -3.785319,-4.942294 -1.326792,-1.482197 -2.669921,-2.895004 -4.917945,-3.286468 -1.128186,-0.196454 -2.483431,0.06685 -3.496611,0.751739 C 9.5077286,38.037352 8.8165,38.986337 8.2517248,40.086468 7.1221031,42.286867 6.3922297,45.282216 5.784281,49.711839 l -0.3675427,2.669359 5.3500427,0.707348 0.361498,-2.643075 c 0.567456,-4.134563 1.328467,-6.735059 1.923672,-7.894466 0.173023,-0.337035 0.195762,-0.31958 0.283622,-0.422607 0.115514,0.09381 0.692773,0.372492 1.575957,1.359122 1.021389,1.14102 2.203995,2.773354 3.411569,4.470997 1.207566,1.697625 2.442664,3.460093 3.743877,4.970719 1.30051,1.509811 2.565274,2.92158 4.704419,3.481475 1.073912,0.281082 2.444998,0.168264 3.522291,-0.444366 1.074574,-0.611087 1.808942,-1.539413 2.386315,-2.594818 1.154422,-2.110229 1.855673,-4.958346 2.441877,-9.214903 2.214139,-16.077331 6.455867,-24.593696 9.889959,-29.01176 1.717078,-2.209076 3.234147,-3.406711 4.254272,-4.049101 1.020557,-0.642661 1.294045,-0.667847 1.294045,-0.667847 L 53.173153,9.7899951 51.880148,4.5497689 Z"
       id="path68687" />
    <g
       id="path857-3"
       transform="rotate(90,29.345633,29.685713)"
       style="stroke-width:3.8;stroke-miterlimit:4;stroke-dasharray:none;stroke:#28abfa;stroke-opacity:1;fill:#28abfa;fill-opacity:1">
      <path
         style="color:#000000;fill:#28abfa;fill-opacity:1;stroke:#28abfa;stroke-width:3.8;stroke-miterlimit:4;stroke-dasharray:none;stroke-opacity:1"
         d="m -1.3035647,95.077377 c 23.5881107,-31.453955 18.5273787,-34.841257 -0.03337,-0.01444 -1.743795,4.06954 -3.238709,6.585073 -4.545396,7.936533 M -19.515249,85.033793 c -0.523244,-0.246575 -1.081512,-0.293462 -1.678759,-0.09126 -0.597247,0.202196 -1.233298,0.652458 -1.917317,1.398188 -1.368036,1.491462 -2.928715,4.165905 -4.747539,8.415974 l 0.0336,0.01419 c 1.818037,-4.248224 3.377833,-6.920051 4.740537,-8.405703 0.681352,-0.742827 1.313236,-1.188934 1.902376,-1.388384 0.58914,-0.199454 1.135591,-0.153231 1.651451,0.08987"
         id="path60185"
         sodipodi:nodetypes="ccccssccssc" />
      <path
         style="color:#000000;fill:#28abfa;fill-opacity:1;stroke:#28abfa;stroke-width:3.8;stroke-miterlimit:4;stroke-dasharray:none;stroke-opacity:1"
         d="m 57.143359,74.208333 c -0.769375,-2.105671 -1.55688,-4.262914 -2.505859,-6.167969 -0.948463,-1.904017 -1.931464,-3.741109 -4.138672,-4.78125 -1.107703,-0.521997 -2.581663,-0.634197 -3.820312,-0.214844 -1.236036,0.418456 -2.217481,1.201293 -3.111328,2.175782 -1.787807,1.949105 -3.388487,4.8311 -5.269532,9.226562 l -1.132812,2.648438 5.314453,2.24414 1.123047,-2.623047 c 1.75575,-4.102677 3.27479,-6.568704 4.216797,-7.595703 0.273838,-0.298545 0.292342,-0.274107 0.412109,-0.355468 0.09248,0.129364 0.610799,0.580157 1.242187,1.847656 0.730145,1.465746 1.485468,3.483753 2.25,5.576172 0.764528,2.0924 0.807561,2.384918 1.721598,4.311008 m 4.598715,6.796414 c 1.027779,0.593895 2.471558,0.865758 3.755859,0.539062 1.281061,-0.325877 2.303094,-1.075194 3.197266,-2 1.78785,-1.849104 3.31733,-4.587385 5.126953,-8.810547 C 76.958911,61.073541 83.742044,53.492882 88.533984,49.909505 L 85.078906,45.288411 C 79.503955,49.45732 70.039244,63.48999 65.564064,73.164794 c -0.177944,0.384693 -2.090907,4.668955 -3.747412,8.217731"
         id="path65695"
         sodipodi:nodetypes="csscsccccscssccsssccsc" />
    </g>
    <g
       sodipodi:type="inkscape:box3d"
       id="g33814"
       style="fill:#28abfa;fill-opacity:1;stroke:#14cfff;stroke-width:24.6312;stroke-miterlimit:4;stroke-dasharray:none;stroke-opacity:1"
       inkscape:perspectiveID="#perspective33812"
       inkscape:corner0="0.5985224 : 0.035053026 : 0 : 1"
       inkscape:corner7="-0.2063021 : -0.011749387 : 0.25 : 1">
      <path
         sodipodi:type="inkscape:box3dside"
         id="path33826"
         style="fill:#e9e9ff;fill-rule:evenodd;stroke:none;stroke-linejoin:round"
         inkscape:box3dsidetype="11"
         d="M 83.170815,-8.0154624 103.19445,-18.188453 v 44.842875 l -20.023635,-9.35106 z"
         points="103.19445,-18.188453 103.19445,26.654422 83.170815,17.303362 83.170815,-8.0154624 " />
      <path
         sodipodi:type="inkscape:box3dside"
         id="path33816"
         style="fill:#353564;fill-rule:evenodd;stroke:none;stroke-linejoin:round"
         inkscape:box3dsidetype="6"
         d="m 77.222616,-10.078673 v 29.278548 l 5.948199,-1.896513 V -8.0154624 Z"
         points="77.222616,19.199875 83.170815,17.303362 83.170815,-8.0154624 77.222616,-10.078673 " />
      <path
         sodipodi:type="inkscape:box3dside"
         id="path33824"
         style="fill:#afafde;fill-rule:evenodd;stroke:none;stroke-linejoin:round"
         inkscape:box3dsidetype="13"
         d="m 77.222616,19.199875 20.299121,14.219568 5.672713,-6.765021 -20.023635,-9.35106 z"
         points="97.521737,33.419443 103.19445,26.654422 83.170815,17.303362 77.222616,19.199875 " />
      <path
         sodipodi:type="inkscape:box3dside"
         id="path33818"
         style="fill:#4d4d9f;fill-rule:evenodd;stroke:none;stroke-linejoin:round"
         inkscape:box3dsidetype="5"
         d="m 77.222616,-10.078673 20.299121,-15.469426 5.672713,7.359646 -20.023635,10.1729906 z"
         points="97.521737,-25.548099 103.19445,-18.188453 83.170815,-8.0154624 77.222616,-10.078673 " />
      <path
         sodipodi:type="inkscape:box3dside"
         id="path33822"
         style="fill:#14cfff;fill-opacity:1;fill-rule:evenodd;stroke:none;stroke-linejoin:round"
         inkscape:box3dsidetype="14"
         d="m 97.521737,-25.548099 v 58.967542 l 5.672713,-6.765021 v -44.842875 z"
         points="97.521737,33.419443 103.19445,26.654422 103.19445,-18.188453 97.521737,-25.548099 " />
      <path
         sodipodi:type="inkscape:box3dside"
         id="path33820"
         style="fill:#28abfa;fill-opacity:1;fill-rule:evenodd;stroke:none;stroke-linejoin:round"
         inkscape:box3dsidetype="3"
         d="M 77.222616,-10.078673 97.521737,-25.548099 V 33.419443 L 77.222616,19.199875 Z"
         points="97.521737,-25.548099 97.521737,33.419443 77.222616,19.199875 77.222616,-10.078673 " />
    </g>
  </g>
</svg>
