<?xml version="1.0" encoding="UTF-8" standalone="no"?>
<!-- Created with Inkscape (http://www.inkscape.org/) -->

<svg
   width="64mm"
   height="64mm"
   viewBox="0 0 64 64"
   version="1.1"
   id="svg5"
   sodipodi:docname="logo2.svg"
   inkscape:version="1.1.2 (b8e25be833, 2022-02-05)"
   xmlns:inkscape="http://www.inkscape.org/namespaces/inkscape"
   xmlns:sodipodi="http://sodipodi.sourceforge.net/DTD/sodipodi-0.dtd"
   xmlns="http://www.w3.org/2000/svg"
   xmlns:svg="http://www.w3.org/2000/svg">
  <sodipodi:namedview
     id="namedview7"
     pagecolor="#ffffff"
     bordercolor="#666666"
     borderopacity="1.0"
     inkscape:pageshadow="2"
     inkscape:pageopacity="0.0"
     inkscape:pagecheckerboard="0"
     inkscape:document-units="mm"
     showgrid="false"
     inkscape:zoom="2.0359279"
     inkscape:cx="123.28531"
     inkscape:cy="100.4456"
     inkscape:window-width="2400"
     inkscape:window-height="1271"
     inkscape:window-x="2391"
     inkscape:window-y="-9"
     inkscape:window-maximized="1"
     inkscape:current-layer="layer1" />
  <defs
     id="defs2">
    <inkscape:perspective
       sodipodi:type="inkscape:persp3d"
       inkscape:vp_x="65.471674 : -44.631784 : 1"
       inkscape:vp_y="0 : 999.99994 : 0"
       inkscape:vp_z="275.47168 : -44.631784 : 1"
       inkscape:persp3d-origin="170.47168 : -94.131771 : 1"
       id="perspective852" />
  </defs>
  <g
     inkscape:label="Слой 1"
     inkscape:groupmode="layer"
     id="layer1">
    <g
       id="g33222"
       transform="matrix(0.92051163,0,0,0.92051163,2.0076533,5.084099)">
      <path
         style="color:#000000;fill:#28abfa;fill-opacity:1;stroke-linejoin:round;-inkscape-stroke:none"
         d="m 55.327448,4.0682626 c -1.735004,1.0662115 -7.718073,29.9571284 -7.718073,29.9571284 -0.259743,0.927652 -0.377196,1.059154 -0.611328,1.816406 -0.257066,-0.542719 -0.386581,-1.051204 -0.744141,-1.603516 -0.921751,-1.423803 -2.840039,-3.405846 -5.652344,-3.255859 -2.812304,0.149986 -4.499438,1.918884 -5.986328,3.941406 -1.486889,2.022522 -2.941473,4.761656 -4.65039,8.693359 -1.429365,3.288539 -2.648093,5.114216 -3.347657,5.902344 -0.20374,-0.190236 -0.211867,-0.157441 -0.662109,-0.787109 -0.759708,-1.06246 -1.638509,-2.588697 -2.609375,-4.144531 -0.970865,-1.555835 -1.967339,-3.164758 -3.634766,-4.566407 -0.833713,-0.700824 -1.906588,-1.377698 -3.291015,-1.664062 -1.384428,-0.286365 -2.995828,-0.04548 -4.265625,0.59375 -2.5395942,1.278456 -4.006178,3.458409 -5.6171876,6.566406 -1.6110096,3.107998 -3.2581553,7.330543 -5.1132813,13.189453 l 7.6269532,2.414063 c 1.7746657,-5.6048 3.3283057,-9.491855 4.5878907,-11.921875 0.911465,-1.758421 1.231095,-1.927441 1.527344,-2.246094 0.40472,0.485358 0.799317,0.918427 1.392578,1.869141 0.849774,1.361783 1.770465,2.995945 2.890625,4.5625 1.120159,1.566554 2.37856,3.272106 4.867187,4.185546 2.488627,0.913441 5.788685,-0.142668 7.746094,-2.097656 1.957409,-1.954988 3.494338,-4.653726 5.238281,-8.666015 1.337468,-3.077112 2.340936,-4.759577 3.189453,-6.0625 0.06392,0.164671 0.104848,0.208652 0.167969,0.380859 0.420767,1.147937 0.825744,2.411594 1.402344,3.673828 0.2883,0.631117 0.597861,1.272169 1.205078,2.011719 0.607217,0.73955 1.78741,1.825796 3.626953,1.912109 1.839543,0.08631 3.245181,-0.953166 3.984375,-1.769531 0.739194,-0.816365 1.175424,-1.621848 1.626953,-2.574219 0.903059,-1.90474 1.759055,-4.448913 2.808594,-8.197265 0,0 9.302282,-27.5622394 8.361328,-29.8652348 -1.95199,-4.7775161 -3.630244,-5.1463483 -8.34638,-2.2481436 z"
         id="path2135"
         sodipodi:nodetypes="sccsssscssssssccscssssscsssssscss" />
      <path
         style="color:#000000;fill:#14cfff;fill-opacity:1;stroke-linejoin:round;-inkscape-stroke:none"
         d="M 55.327448,-0.80209632 C 53.592444,0.26411518 47.609375,29.155032 47.609375,29.155032 c -0.259743,0.927652 -0.377196,1.059154 -0.611328,1.816406 -0.257066,-0.542719 -0.386581,-1.051204 -0.744141,-1.603516 -0.921751,-1.423803 -2.840039,-3.405846 -5.652344,-3.255859 -2.812304,0.149986 -4.499438,1.918884 -5.986328,3.941406 -1.486889,2.022522 -2.941473,4.761656 -4.65039,8.693359 -1.429365,3.288539 -2.648093,5.114216 -3.347657,5.902344 -0.20374,-0.190236 -0.211867,-0.157441 -0.662109,-0.787109 -0.759708,-1.06246 -1.638509,-2.588697 -2.609375,-4.144531 -0.970865,-1.555835 -1.967339,-3.164758 -3.634766,-4.566407 -0.833713,-0.700824 -1.906588,-1.377698 -3.291015,-1.664062 -1.384428,-0.286365 -2.995828,-0.04548 -4.265625,0.59375 -2.5395942,1.278456 -4.006178,3.458409 -5.6171876,6.566406 -1.6110096,3.107998 -3.2581553,7.330543 -5.1132813,13.189453 l 7.6269532,2.414063 c 1.7746657,-5.6048 3.3283057,-9.491855 4.5878907,-11.921875 0.911465,-1.758421 1.231095,-1.927441 1.527344,-2.246094 0.40472,0.485358 0.799317,0.918427 1.392578,1.869141 0.849774,1.361783 1.770465,2.995945 2.890625,4.5625 1.120159,1.566554 2.37856,3.272106 4.867187,4.185546 2.488627,0.913441 5.788685,-0.142668 7.746094,-2.097656 1.957409,-1.954988 3.494338,-4.653726 5.238281,-8.666015 1.337468,-3.077112 2.340936,-4.759577 3.189453,-6.0625 0.06392,0.164671 0.104848,0.208652 0.167969,0.380859 0.420767,1.147937 0.825744,2.411594 1.402344,3.673828 0.2883,0.631117 0.597861,1.272169 1.205078,2.011719 0.607217,0.73955 1.78741,1.825796 3.626953,1.912109 1.839543,0.08631 3.245181,-0.953166 3.984375,-1.769531 0.739194,-0.816365 1.175424,-1.621848 1.626953,-2.574219 0.903059,-1.90474 1.759055,-4.448913 2.808594,-8.197265 0,0 9.302282,-27.5622393 8.361328,-29.8652347 -1.95199,-4.7775161 -3.630244,-5.1463483 -8.34638,-2.24814362 z"
         id="path3171"
         sodipodi:nodetypes="sccsssscssssssccscssssscsssssscss" />
    </g>
  </g>
</svg>
