<?xml version="1.0" encoding="UTF-8" standalone="no"?>
<!-- Generator: Adobe Illustrator 18.0.0, SVG Export Plug-In . SVG Version: 6.00 Build 0)  -->

<svg
   version="1.1"
   id="Capa_1"
   x="0px"
   y="0px"
   viewBox="0 0 64 64"
   xml:space="preserve"
   sodipodi:docname="basket-svgrepo-com.svg"
   width="64"
   height="64"
   inkscape:version="1.1.2 (b8e25be833, 2022-02-05)"
   xmlns:inkscape="http://www.inkscape.org/namespaces/inkscape"
   xmlns:sodipodi="http://sodipodi.sourceforge.net/DTD/sodipodi-0.dtd"
   xmlns="http://www.w3.org/2000/svg"
   xmlns:svg="http://www.w3.org/2000/svg"><defs
   id="defs37" /><sodipodi:namedview
   id="namedview35"
   pagecolor="#ffffff"
   bordercolor="#666666"
   borderopacity="1.0"
   inkscape:pageshadow="2"
   inkscape:pageopacity="0.0"
   inkscape:pagecheckerboard="0"
   showgrid="false"
   inkscape:zoom="4.7611857"
   inkscape:cx="32.344884"
   inkscape:cy="57.653706"
   inkscape:window-width="1920"
   inkscape:window-height="1001"
   inkscape:window-x="-9"
   inkscape:window-y="-9"
   inkscape:window-maximized="1"
   inkscape:current-layer="Capa_1" />
<path
   d="M 60.8,26.713534 H 39.534933 L 59.767467,6.4820666 c 1.246933,-1.248 1.246933,-3.2778666 0,-4.5258666 -1.248,-1.24800005 -3.2768,-1.24800005 -4.5248,0 l -21.744,21.741867 C 33.016533,23.581801 32.516267,23.513534 32,23.513534 c -0.516267,0 -1.0176,0.06827 -1.498667,0.184533 L 8.7584,1.9551333 c -1.248,-1.24906668 -3.2778667,-1.24800002 -4.5258667,0 -0.6026666,0.6037333 -0.9344,1.4069333 -0.9344,2.2634667 0,0.8576 0.3328,1.6608 0.9344,2.2624 L 24.465067,26.714601 H 3.2 c -1.7642667,0 -3.2,1.435733 -3.2,3.2 0,1.764266 1.4357333,3.2 3.2,3.2 h 0.3146667 l 9.6106663,26.910933 c 0.632534,1.767467 2.317867,2.955733 4.1952,2.955733 H 46.6784 c 1.877333,0 3.562667,-1.1872 4.1952,-2.955733 L 60.484267,33.114601 H 60.8 c 1.764267,0 3.2,-1.435734 3.2,-3.2 0,-1.764267 -1.435733,-3.201067 -3.2,-3.201067 z M 33.392,25.899667 c 0.0011,0 0.0021,0 0.0032,0.0011 1.1104,0.3872 2.013867,1.208533 2.491733,2.273067 l 0.06933,0.168533 c 0.0075,0.01813 0.01173,0.03413 0.01813,0.0512 0.06507,0.170667 0.120533,0.3456 0.1632,0.525867 0.01493,0.0608 0.032,0.117333 0.04587,0.183466 0.05653,0.285867 0.0832,0.5504 0.0832,0.810667 0,0.266667 -0.032,0.5248 -0.07893,0.7776 -0.0064,0.03733 -0.0085,0.06507 -0.016,0.103467 -0.0448,0.208 -0.112,0.426666 -0.212266,0.6784 l -0.09387,0.218666 c -0.08533,0.184534 -0.1792,0.362667 -0.289067,0.5312 -0.0512,0.07893 -0.1088,0.1504 -0.164266,0.225067 -0.09493,0.126933 -0.193067,0.2496 -0.3008,0.3648 -0.06293,0.0672 -0.125867,0.133333 -0.192,0.196267 -0.132267,0.1248 -0.274134,0.24 -0.421334,0.347733 -0.05013,0.03627 -0.096,0.07787 -0.1472,0.112 -0.197333,0.1312 -0.407466,0.2432 -0.626133,0.340267 -0.06933,0.03093 -0.141867,0.0544 -0.213333,0.08213 -0.168534,0.064 -0.341334,0.1184 -0.5184,0.161067 -0.07573,0.01813 -0.152534,0.03733 -0.229334,0.0512 -0.248533,0.0448 -0.5024,0.07787 -0.763733,0.07787 -0.261333,0 -0.5152,-0.032 -0.763733,-0.07787 -0.07787,-0.01387 -0.1536,-0.03307 -0.229334,-0.0512 -0.177066,-0.04267 -0.349866,-0.09707 -0.5184,-0.161067 -0.07147,-0.02773 -0.144,-0.0512 -0.213333,-0.08213 -0.218667,-0.09707 -0.4288,-0.209067 -0.626133,-0.340267 -0.0512,-0.03413 -0.09707,-0.07573 -0.1472,-0.112 -0.1472,-0.107733 -0.289067,-0.222933 -0.421334,-0.347733 -0.06613,-0.06293 -0.130133,-0.129067 -0.193066,-0.196267 -0.107734,-0.1152 -0.205867,-0.237867 -0.3008,-0.363733 -0.05547,-0.07467 -0.114134,-0.146134 -0.165334,-0.225067 -0.1248,-0.192 -0.235733,-0.3936 -0.328533,-0.6048 C 27.85493,31.0709 27.73333,30.4981 27.73333,29.913567 c 0,-0.584533 0.1216,-1.157333 0.360534,-1.704533 0.4736,-1.0816 1.387733,-1.9168 2.510933,-2.308267 0.0011,0 0.0021,0 0.0032,-0.0011 0.4384,-0.152533 0.901333,-0.2528 1.392,-0.2528 0.490667,0 0.952533,0.100267 1.392,0.2528 z M 2.1333333,29.913534 c 0,-0.5888 0.4789334,-1.066667 1.0666667,-1.066667 h 22.4896 c -0.0053,0.02987 -0.0032,0.0608 -0.0075,0.09067 -0.04907,0.32 -0.08213,0.644267 -0.08213,0.976 0,0.331733 0.03307,0.657067 0.08213,0.976 0.0043,0.02987 0.0021,0.0608 0.0075,0.09067 H 3.2 c -0.5877333,0 -1.0666667,-0.477867 -1.0666667,-1.066667 z M 42.666667,56.580201 H 21.333333 c -0.5888,0 -1.066666,-0.4768 -1.066666,-1.066667 0,-0.589867 0.477866,-1.066667 1.066666,-1.066667 h 21.333334 c 0.5888,0 1.066666,0.4768 1.066666,1.066667 0,0.589867 -0.477866,1.066667 -1.066666,1.066667 z M 44.8,51.246867 H 19.2 c -0.5888,0 -1.066667,-0.4768 -1.066667,-1.066666 0,-0.589867 0.477867,-1.066667 1.066667,-1.066667 h 25.6 c 0.5888,0 1.066667,0.4768 1.066667,1.066667 0,0.589866 -0.477867,1.066666 -1.066667,1.066666 z M 48,45.913534 H 16 c -0.5888,0 -1.066667,-0.4768 -1.066667,-1.066667 0,-0.589866 0.477867,-1.066666 1.066667,-1.066666 h 32 c 0.5888,0 1.066667,0.4768 1.066667,1.066666 0,0.589867 -0.477867,1.066667 -1.066667,1.066667 z m 3.2,-5.333333 H 12.8 c -0.5888,0 -1.066667,-0.4768 -1.066667,-1.066667 0,-0.589867 0.477867,-1.066667 1.066667,-1.066667 h 38.4 c 0.5888,0 1.066667,0.4768 1.066667,1.066667 0,0.589867 -0.477867,1.066667 -1.066667,1.066667 z m 9.6,-9.6 H 38.305067 c 0.0011,-0.0085 0.0011,-0.016 0.0021,-0.02453 0.05653,-0.3392 0.0928,-0.685866 0.0928,-1.042133 0,-0.353067 -0.03627,-0.6976 -0.09173,-1.034667 -0.0021,-0.01067 -0.0011,-0.02133 -0.0032,-0.032 H 60.8 c 0.587733,0 1.066667,0.477867 1.066667,1.066667 0,0.5888 -0.478934,1.066667 -1.066667,1.066667 z"
   id="path2"
   style="stroke-width:1.06667" />















</svg>
