<?xml version="1.0" encoding="UTF-8" standalone="no"?>
<!-- Generator: Adobe Illustrator 18.0.0, SVG Export Plug-In . SVG Version: 6.00 Build 0)  -->

<svg
   version="1.1"
   id="Capa_1"
   x="0px"
   y="0px"
   viewBox="0 0 64 64"
   xml:space="preserve"
   sodipodi:docname="online-purchase-svgrepo-com.svg"
   width="64"
   height="64"
   inkscape:version="1.1.2 (b8e25be833, 2022-02-05)"
   xmlns:inkscape="http://www.inkscape.org/namespaces/inkscape"
   xmlns:sodipodi="http://sodipodi.sourceforge.net/DTD/sodipodi-0.dtd"
   xmlns="http://www.w3.org/2000/svg"
   xmlns:svg="http://www.w3.org/2000/svg"><defs
   id="defs39" /><sodipodi:namedview
   id="namedview37"
   pagecolor="#ffffff"
   bordercolor="#666666"
   borderopacity="1.0"
   inkscape:pageshadow="2"
   inkscape:pageopacity="0.0"
   inkscape:pagecheckerboard="0"
   showgrid="false"
   inkscape:zoom="6.5959184"
   inkscape:cx="12.886757"
   inkscape:cy="52.22927"
   inkscape:window-width="1920"
   inkscape:window-height="1001"
   inkscape:window-x="-9"
   inkscape:window-y="-9"
   inkscape:window-maximized="1"
   inkscape:current-layer="g4" />
<g
   id="g4"
   transform="matrix(0.13061213,0,0,0.13061213,6.4357931e-7,-1.0246213e-4)">
	<path
   d="M 224.777,305.082 H 405.12 c 3.99,0 7.599,-2.372 9.181,-6.036 l 74.88,-173.406 c 1.335,-3.09 1.024,-6.644 -0.825,-9.457 -1.849,-2.814 -4.989,-4.507 -8.355,-4.507 H 129.393 L 108.717,48.488 c -1.345,-4.11 -5.179,-6.891 -9.504,-6.891 H 10 c -5.523,0 -10,4.478 -10,10 0,5.522 4.477,10 10,10 h 81.964 l 77.413,236.595 c 1.345,4.11 5.18,6.891 9.504,6.891 h 23.403 l -28.482,54.688 c -3.65,-0.958 -7.48,-1.473 -11.428,-1.473 -24.841,0 -45.051,20.21 -45.051,45.052 0,24.843 20.21,45.055 45.051,45.055 21.402,0 39.356,-15.011 43.916,-35.055 h 176.654 c 4.561,20.044 22.511,35.055 43.912,35.055 24.845,0 45.058,-20.212 45.058,-45.055 0,-24.842 -20.213,-45.052 -45.058,-45.052 -21.4,0 -39.352,15.009 -43.912,35.052 H 206.29 c -2.193,-9.639 -7.481,-18.108 -14.766,-24.309 L 224.356,306 c 0.158,-0.302 0.297,-0.609 0.421,-0.918 z m 41.96,-173.407 h 53.877 l -28.801,66.698 h -53.877 z m -50.585,66.699 h -53.871 l 28.794,-66.698 h 53.877 z m 97.447,0 28.801,-66.698 h 53.873 l -28.801,66.698 z m 45.236,20 -28.805,66.708 h -53.873 l 28.805,-66.708 z m -75.658,0 -28.805,66.708 h -53.875 l 28.804,-66.708 z m 115.369,66.708 h -46.73 l 28.805,-66.708 h 46.731 z m 37.441,-86.708 h -46.73 l 28.801,-66.698 h 46.731 z m -266.695,-66.699 -18.975,43.951 -14.381,-43.951 z m -4.988,86.699 h 43.213 l -24.584,56.934 z m -1.93,210.03 c -13.813,0 -25.051,-11.239 -25.051,-25.055 0,-13.813 11.237,-25.052 25.051,-25.052 13.812,0 25.049,11.238 25.049,25.052 0,13.816 -11.237,25.055 -25.049,25.055 z m 264.482,-50.107 c 13.816,0 25.058,11.238 25.058,25.052 0,13.815 -11.241,25.055 -25.058,25.055 -13.81,0 -25.045,-11.239 -25.045,-25.055 0,-13.813 11.236,-25.052 25.045,-25.052 z"
   id="path1038" />
</g>















</svg>
