<?xml version="1.0" encoding="UTF-8" standalone="no"?>
<svg
   width="64"
   height="64"
   viewBox="0 0 64 64"
   class="icon"
   version="1.1"
   id="svg4"
   sodipodi:docname="setting-svgrepo-com.svg"
   inkscape:version="1.1.2 (b8e25be833, 2022-02-05)"
   xmlns:inkscape="http://www.inkscape.org/namespaces/inkscape"
   xmlns:sodipodi="http://sodipodi.sourceforge.net/DTD/sodipodi-0.dtd"
   xmlns="http://www.w3.org/2000/svg"
   xmlns:svg="http://www.w3.org/2000/svg">
  <defs
     id="defs8" />
  <sodipodi:namedview
     id="namedview6"
     pagecolor="#ffffff"
     bordercolor="#666666"
     borderopacity="1.0"
     inkscape:pageshadow="2"
     inkscape:pageopacity="0.0"
     inkscape:pagecheckerboard="0"
     showgrid="false"
     inkscape:zoom="0.27897572"
     inkscape:cx="114.70532"
     inkscape:cy="836.99039"
     inkscape:window-width="1920"
     inkscape:window-height="1001"
     inkscape:window-x="-9"
     inkscape:window-y="-9"
     inkscape:window-maximized="1"
     inkscape:current-layer="svg4" />
  <path
     d="m 63.154897,40.592792 -4.94223,-4.22542 c 0.23391,-1.43362 0.35464,-2.89743 0.35464,-4.361235 0,-1.463805 -0.12073,-2.92761 -0.35464,-4.361233 l 4.94223,-4.225417 a 2.4167874,2.4167874 0 0 0 0.70172,-2.655976 l -0.0679,-0.19618 a 33.481899,33.481899 0 0 0 -6.01367,-10.405088 l -0.13582,-0.158454 a 2.4235782,2.4235782 0 0 0 -2.64843,-0.7168109 l -6.1344,2.1806159 c -2.26361,-1.8561649 -4.79132,-3.3199699 -7.52275,-4.3461419 l -1.18462,-6.41357903 a 2.4182964,2.4182964 0 0 0 -1.94671,-1.93916397 l -0.20373,-0.03773 c -3.93114,-0.709267 -8.06602,-0.709267 -11.99716,0 l -0.20373,0.03773 a 2.4182964,2.4182964 0 0 0 -1.94671,1.93916397 l -1.19217,6.44376003 a 26.549198,26.549198 0 0 0 -7.46993,4.3310519 L 9.0092144,9.2869781 a 2.4145237,2.4145237 0 0 0 -2.648431,0.7168109 l -0.135817,0.158454 A 33.653934,33.653934 0 0 0 0.21129343,20.567331 l -0.06791,0.19618 c -0.339542,0.943173 -0.06036,1.999527 0.701721,2.655976 l 5.00259197,4.270689 c -0.233907,1.418533 -0.347088,2.867247 -0.347088,4.308416 0,1.448714 0.113181,2.89743 0.347088,4.30842 l -5.00259197,4.27068 a 2.4167874,2.4167874 0 0 0 -0.701721,2.65598 l 0.06791,0.19618 c 1.36571497,3.80288 3.38787797,7.31148 6.01367297,10.40509 l 0.135817,0.15845 a 2.4235782,2.4235782 0 0 0 2.648431,0.71681 l 6.1796726,-2.1957 c 2.24852,1.84862 4.76114,3.31242 7.46993,4.33105 l 1.19217,6.44376 a 2.4182964,2.4182964 0 0 0 1.94671,1.93916 l 0.20373,0.0377 a 33.908968,33.908968 0 0 0 11.99716,0 l 0.20373,-0.0377 a 2.4182964,2.4182964 0 0 0 1.94671,-1.93916 l 1.18462,-6.41358 a 26.408853,26.408853 0 0 0 7.52275,-4.34614 l 6.1344,2.18061 a 2.4145237,2.4145237 0 0 0 2.64843,-0.71681 l 0.13582,-0.15845 c 2.6258,-3.10116 4.64796,-6.60221 6.01367,-10.40509 l 0.0679,-0.19618 c 0.33954,-0.92808 0.0604,-1.98444 -0.70172,-2.64088 z M 52.855447,28.535259 c 0.18863,1.139354 0.28672,2.308888 0.28672,3.478423 0,1.169535 -0.0981,2.33907 -0.28672,3.47842 l -0.498,3.0257 5.63641,4.82151 a 27.920194,27.920194 0 0 1 -3.21434,5.5534 l -7.00212,-2.48243 -2.36925,1.94671 c -1.80335,1.47889 -3.81042,2.64088 -5.98349,3.45579 l -2.87479,1.07899 -1.35063,7.31902 a 28.483835,28.483835 0 0 1 -6.41357,0 l -1.35063,-7.33412 -2.85216,-1.09408 c -2.15043,-0.8149 -4.14996,-1.97689 -5.93821,-3.44824 l -2.36926,-1.95425 -7.0473866,2.50507 c -1.282716,-1.7279 -2.354161,-3.59161 -3.214335,-5.55341 l 5.6967666,-4.86677 -0.49045,-3.01816 c -0.181089,-1.124261 -0.279179,-2.286251 -0.279179,-3.43315 0,-1.154444 0.09054,-2.308888 0.279179,-3.433151 l 0.49045,-3.018154 -5.6967666,-4.866775 c 0.852629,-1.969346 1.931619,-3.825511 3.214335,-5.553404 l 7.0473866,2.505068 2.36926,-1.954255 c 1.78825,-1.47135 3.78778,-2.63334 5.93821,-3.448242 l 2.85971,-1.07899 1.35062,-7.3341159 c 2.12025,-0.241452 4.28578,-0.241452 6.41358,0 l 1.35062,7.3190249 2.8748,1.078991 c 2.16552,0.814901 4.18014,1.976891 5.98349,3.455787 l 2.36925,1.946709 7.00212,-2.482432 c 1.28271,1.727894 2.35416,3.591604 3.21433,5.553405 l -5.6364,4.821502 z m -20.8479,-10.555996 c -7.33412,0 -13.27989,5.945765 -13.27989,13.279881 0,7.334118 5.94577,13.279878 13.27989,13.279878 7.33411,0 13.27988,-5.94576 13.27988,-13.279878 0,-7.334116 -5.94577,-13.279881 -13.27988,-13.279881 z m 5.97594,19.255829 a 8.4206515,8.4206515 0 0 1 -5.97594,2.47488 c -2.25608,0 -4.37633,-0.88281 -5.97595,-2.47488 a 8.4206515,8.4206515 0 0 1 -2.47489,-5.975948 c 0,-2.256071 0.88281,-4.376325 2.47489,-5.975947 1.59962,-1.599621 3.71987,-2.474886 5.97595,-2.474886 2.25607,0 4.37632,0.875265 5.97594,2.474886 a 8.4206515,8.4206515 0 0 1 2.47489,5.975947 c 0,2.25607 -0.88281,4.376328 -2.47489,5.975948 z"
     id="path2"
     style="stroke-width:0.0754539" />
</svg>
