<?xml version="1.0" encoding="UTF-8" standalone="no"?>
<!-- Created with Inkscape (http://www.inkscape.org/) -->

<svg
   width="128"
   height="128"
   viewBox="0 0 33.866666 33.866666"
   version="1.1"
   id="svg5"
   inkscape:version="1.1.2 (b8e25be833, 2022-02-05)"
   sodipodi:docname="maximize_2.svg"
   xmlns:inkscape="http://www.inkscape.org/namespaces/inkscape"
   xmlns:sodipodi="http://sodipodi.sourceforge.net/DTD/sodipodi-0.dtd"
   xmlns="http://www.w3.org/2000/svg"
   xmlns:svg="http://www.w3.org/2000/svg">
  <sodipodi:namedview
     id="namedview7"
     pagecolor="#ffc2df"
     bordercolor="#666666"
     borderopacity="1.0"
     inkscape:pageshadow="2"
     inkscape:pageopacity="0"
     inkscape:pagecheckerboard="0"
     inkscape:document-units="mm"
     showgrid="true"
     width="64mm"
     showguides="true"
     inkscape:guide-bbox="true"
     inkscape:lockguides="true"
     fit-margin-top="0"
     fit-margin-left="0"
     fit-margin-right="0"
     fit-margin-bottom="0"
     units="px"
     inkscape:zoom="4"
     inkscape:cx="-43.625"
     inkscape:cy="58.125"
     inkscape:window-width="1920"
     inkscape:window-height="1001"
     inkscape:window-x="-9"
     inkscape:window-y="-9"
     inkscape:window-maximized="1"
     inkscape:current-layer="layer1">
    <inkscape:grid
       type="xygrid"
       id="grid1502"
       empspacing="8" />
    <sodipodi:guide
       position="16.933333,16.933333"
       orientation="0,-1"
       id="guide1504"
       inkscape:locked="true" />
    <sodipodi:guide
       position="16.933333,16.933333"
       orientation="1,0"
       id="guide1506"
       inkscape:locked="true" />
  </sodipodi:namedview>
  <defs
     id="defs2" />
  <g
     inkscape:label="Слой 1"
     inkscape:groupmode="layer"
     id="layer1"
     transform="translate(-31.75,-15.696918)">
    <path
       id="path1266"
       style="fill:#ff8080;stroke-width:7.11512;stroke-linejoin:round"
       d="m 40.216667,26.280251 c -1.172636,0 -2.116667,0.944033 -2.116667,2.116667 v 14.816666 c 0,1.172634 0.944031,2.116667 2.116667,2.116667 H 57.15 c 1.172636,0 2.116666,-0.944033 2.116666,-2.116667 V 28.396918 c 0,-1.172634 -0.94403,-2.116667 -2.116666,-2.116667 z m 2.116666,2.116667 h 12.7 c 1.172634,0 2.116667,0.944033 2.116667,2.116666 v 10.583334 c 0,1.172633 -0.944033,2.116666 -2.116667,2.116666 h -12.7 c -1.172634,0 -2.116666,-0.944033 -2.116666,-2.116666 V 30.513584 c 0,-1.172633 0.944032,-2.116666 2.116666,-2.116666 z" />
    <path
       id="path1269"
       style="fill:#ffffff;stroke-width:6.00001;stroke-linejoin:round"
       d="m 43.391665,22.046919 h 19.05 c 0.586316,0 1.058333,0.472017 1.058333,1.058333 0,0.586317 -0.472017,1.058333 -1.058333,1.058333 h -19.05 c -0.586316,0 -1.058333,-0.472016 -1.058333,-1.058333 0,-0.586316 0.472017,-1.058333 1.058333,-1.058333 z" />
    <path
       id="path1272"
       style="fill:#ffffff;stroke-width:6.00001;stroke-linejoin:round"
       d="m 62.441665,22.046919 c 0.586316,0 1.058333,0.472016 1.058333,1.058332 v 16.933335 c 0,0.586316 -0.472017,1.058332 -1.058333,1.058332 -0.586317,0 -1.058334,-0.472016 -1.058334,-1.058332 V 23.105251 c 0,-0.586316 0.472017,-1.058332 1.058334,-1.058332 z" />
  </g>
</svg>
