<svg id="Capa_1" enable-background="new 0 0 512 512" height="512" viewBox="0 0 512 512" width="512" xmlns="http://www.w3.org/2000/svg"><circle cx="256" cy="256" fill="#ffd740" r="256"/><path d="m256 0c-5.19 0-10.339.173-15.453.478 134.188 7.991 240.548 119.327 240.548 255.522s-106.36 247.531-240.547 255.523c5.113.304 10.262.477 15.452.477 141.385 0 256-114.615 256-256s-114.615-256-256-256z" fill="#ffc400"/><path d="m479.372 284.031c-2.539 20.587-7.869 40.532-15.808 59.379-1.486 3.528-5.251 5.512-9.02 4.843-8.297-1.472-16.988 2.269-21.445 9.992-4.444 7.699-3.364 17.067 2.019 23.505 2.457 2.938 2.616 7.189.297 10.237-6.167 8.103-12.924 15.848-20.252 23.175-7.327 7.327-15.072 14.085-23.175 20.252-3.048 2.319-7.299 2.16-10.237-.297-6.438-5.383-15.806-6.464-23.505-2.019-7.723 4.457-11.464 13.148-9.992 21.445.669 3.77-1.315 7.534-4.843 9.02-18.848 7.939-38.793 13.27-59.38 15.809-3.786.467-7.375-1.787-8.684-5.37-2.883-7.886-10.454-13.512-19.346-13.512s-16.463 5.626-19.346 13.512c-1.31 3.583-4.898 5.837-8.684 5.37-20.587-2.539-40.532-7.869-59.38-15.809-3.528-1.486-5.512-5.251-4.843-9.02 1.472-8.297-2.268-16.988-9.992-21.445-7.699-4.445-17.067-3.364-23.505 2.019-2.938 2.457-7.189 2.616-10.237.297-8.104-6.167-15.848-12.924-23.175-20.252-7.327-7.327-14.085-15.072-20.252-23.175-2.319-3.048-2.16-7.299.297-10.237 5.383-6.438 6.463-15.806 2.019-23.505-4.457-7.723-13.149-11.464-21.445-9.992-3.77.669-7.534-1.315-9.02-4.843-7.939-18.848-13.269-38.793-15.808-59.379-.467-3.786 1.787-7.374 5.37-8.684 7.886-2.884 13.512-10.454 13.512-19.346s-5.626-16.463-13.512-19.346c-3.583-1.31-5.836-4.898-5.37-8.684 2.539-20.587 7.869-40.532 15.808-59.38 1.486-3.528 5.251-5.512 9.02-4.843 8.297 1.472 16.988-2.269 21.445-9.992 4.444-7.699 3.364-17.068-2.019-23.505-2.457-2.938-2.616-7.189-.297-10.237 6.167-8.104 12.924-15.848 20.252-23.175 7.327-7.327 15.072-14.085 23.175-20.252 3.048-2.319 7.299-2.16 10.237.297 6.438 5.383 15.806 6.463 23.505 2.019 7.723-4.457 11.464-13.149 9.992-21.445-.669-3.77 1.315-7.534 4.843-9.02 18.848-7.939 38.793-13.27 59.38-15.808 3.786-.467 7.374 1.787 8.684 5.37 2.884 7.886 10.454 13.512 19.346 13.512s16.463-5.626 19.346-13.512c1.31-3.583 4.898-5.836 8.684-5.37 20.587 2.539 40.532 7.869 59.38 15.808 3.528 1.486 5.512 5.251 4.843 9.02-1.472 8.297 2.268 16.988 9.992 21.445 7.699 4.444 17.067 3.364 23.505-2.019 2.938-2.457 7.189-2.616 10.237-.297 8.104 6.167 15.848 12.924 23.175 20.252 7.327 7.327 14.085 15.072 20.252 23.175 2.319 3.048 2.16 7.299-.297 10.237-5.383 6.438-6.463 15.806-2.019 23.505 4.457 7.723 13.149 11.464 21.445 9.992 3.77-.669 7.534 1.315 9.02 4.843 7.939 18.848 13.269 38.793 15.808 59.38.467 3.786-1.787 7.374-5.37 8.684-7.886 2.884-13.512 10.454-13.512 19.346s5.626 16.463 13.512 19.346c3.584 1.309 5.837 4.898 5.37 8.684z" fill="#ffab00"/><path d="m388.065 305.196-78.036-9.304c-8.18-.975-15.116 5.961-14.14 14.141l9.313 78.023c.584 4.894-2.273 9.535-6.901 11.229-9.453 3.459-26.076 8.53-42.295 8.53s-32.843-5.071-42.296-8.53c-4.628-1.694-7.485-6.335-6.902-11.228l9.304-78.026c.975-8.179-5.961-15.115-14.14-14.14l-78.037 9.304c-4.895.584-9.537-2.275-11.229-6.905-3.456-9.453-8.521-26.074-8.521-42.291s5.065-32.838 8.521-42.291c1.692-4.63 6.335-7.488 11.229-6.905l78.038 9.304c8.179.975 15.115-5.96 14.14-14.139l-9.304-78.035c-.584-4.895 2.275-9.537 6.905-11.229 9.454-3.456 26.075-8.521 42.293-8.521 16.217 0 32.838 5.064 42.292 8.52 4.63 1.693 7.489 6.335 6.905 11.23l-9.313 78.032c-.976 8.179 5.96 15.116 14.14 14.141l78.036-9.304c4.895-.584 9.537 2.275 11.229 6.905 3.456 9.453 8.521 26.074 8.521 42.291s-5.065 32.838-8.521 42.291c-1.694 4.632-6.336 7.49-11.231 6.907z" fill="#ffd740"/><path d="m476.578 268.303c-5.136-1.878-8.587-6.822-8.587-12.303s3.451-10.425 8.586-12.303c6.927-2.531 11.137-9.377 10.238-16.646-2.611-21.184-8.108-41.832-16.339-61.372-2.856-6.781-9.947-10.61-17.243-9.317-5.404.957-10.891-1.593-13.64-6.355-2.74-4.748-2.228-10.754 1.277-14.945 4.753-5.684 4.963-13.739.512-19.59-6.38-8.385-13.417-16.438-20.916-23.938-7.498-7.497-15.552-14.534-23.938-20.917-5.851-4.452-13.907-4.241-19.589.513-4.191 3.505-10.196 4.02-14.946 1.276-4.762-2.748-7.315-8.229-6.355-13.639 1.295-7.296-2.536-14.387-9.317-17.243-19.539-8.229-40.188-13.728-61.372-16.34-7.271-.9-14.115 3.313-16.646 10.238-1.878 5.136-6.822 8.587-12.303 8.587s-10.424-3.451-12.302-8.587c-2.532-6.925-9.38-11.133-16.646-10.238-21.185 2.612-41.833 8.11-61.373 16.34-6.78 2.856-10.611 9.947-9.316 17.243.96 5.41-1.594 10.891-6.357 13.64-4.748 2.739-10.753 2.228-14.944-1.276-5.685-4.755-13.741-4.964-19.59-.514-8.384 6.381-16.438 13.418-23.937 20.917s-14.536 15.553-20.917 23.938c-4.452 5.85-4.241 13.905.512 19.59 3.504 4.191 4.017 10.197 1.277 14.945-2.749 4.762-8.23 7.317-13.64 6.355-7.293-1.294-14.387 2.537-17.242 9.317-8.229 19.535-13.727 40.185-16.341 61.372-.896 7.271 3.314 14.115 10.238 16.646 5.137 1.878 8.588 6.822 8.588 12.303s-3.451 10.425-8.587 12.303c-6.925 2.531-11.135 9.376-10.238 16.646 2.613 21.188 8.111 41.837 16.34 61.372 2.855 6.78 9.945 10.613 17.243 9.317 5.412-.96 10.891 1.594 13.64 6.355 2.74 4.748 2.227 10.755-1.276 14.945-4.754 5.684-4.965 13.739-.513 19.59 6.381 8.385 13.418 16.438 20.917 23.938 7.5 7.5 15.554 14.537 23.937 20.917 5.85 4.451 13.906 4.24 19.59-.513 4.192-3.505 10.197-4.018 14.945-1.276 4.762 2.748 7.316 8.229 6.356 13.639-1.295 7.298 2.537 14.388 9.316 17.242 19.539 8.23 40.188 13.729 61.373 16.341.652.081 1.3.12 1.942.12 6.52 0 12.4-4.055 14.705-10.358 1.878-5.136 6.822-8.587 12.302-8.587s10.425 3.451 12.303 8.586c2.53 6.926 9.377 11.138 16.646 10.239 21.186-2.612 41.834-8.11 61.371-16.341 6.781-2.854 10.613-9.945 9.318-17.242-.96-5.41 1.594-10.891 6.355-13.64 4.749-2.738 10.754-2.227 14.945 1.277 5.685 4.753 13.741 4.962 19.59.513 8.386-6.383 16.439-13.42 23.938-20.917 7.497-7.498 14.534-15.552 20.918-23.938 4.45-5.852 4.238-13.906-.514-19.588-3.505-4.191-4.018-10.198-1.276-14.946 2.748-4.762 8.228-7.315 13.639-6.355 7.293 1.295 14.387-2.536 17.243-9.317 8.23-19.54 13.728-40.188 16.339-61.372.896-7.271-3.314-14.116-10.239-16.647zm-4.649 14.81c-2.442 19.812-7.582 39.119-15.276 57.386-.114.271-.454.429-.798.37-11.598-2.058-23.358 3.417-29.251 13.627-5.875 10.178-4.767 23.063 2.761 32.066.229.273.263.646.082.883-5.975 7.851-12.564 15.393-19.587 22.414-7.021 7.022-14.563 13.612-22.414 19.587-.236.183-.609.147-.885-.083-9.001-7.526-21.889-8.633-32.064-2.761-10.21 5.893-15.687 17.648-13.627 29.252.061.34-.099.683-.37.797-18.265 7.694-37.572 12.834-57.386 15.278-.282.032-.603-.173-.723-.502-4.032-11.027-14.638-18.437-26.391-18.437s-22.359 7.409-26.39 18.437c-.12.327-.423.531-.723.502-19.814-2.444-39.121-7.584-57.387-15.278-.271-.114-.429-.457-.369-.797 2.059-11.604-3.418-23.359-13.627-29.251-4.356-2.516-9.209-3.75-14.041-3.75-6.457 0-12.876 2.205-18.025 6.511-.274.229-.646.265-.884.082-7.848-5.972-15.389-12.562-22.414-19.587-7.022-7.022-13.612-14.563-19.586-22.414-.181-.238-.146-.609.083-.884 7.526-9.002 8.635-21.888 2.761-32.065-5.894-10.21-17.648-15.689-29.252-13.627-.337.06-.683-.099-.798-.37-7.693-18.263-12.833-37.57-15.276-57.386-.037-.299.173-.603.501-.723 11.027-4.032 18.436-14.637 18.436-26.39s-7.409-22.358-18.438-26.391c-.327-.12-.538-.424-.501-.723 2.444-19.815 7.584-39.123 15.277-57.386.115-.272.455-.434.797-.37 11.601 2.06 23.358-3.417 29.252-13.627 5.875-10.178 4.765-23.064-2.761-32.064-.229-.274-.264-.646-.083-.885 5.974-7.851 12.564-15.392 19.586-22.414 7.024-7.024 14.565-13.614 22.415-19.588.234-.177.613-.143.883.084 9.001 7.525 21.887 8.637 32.064 2.761 10.21-5.893 15.688-17.647 13.628-29.252-.061-.341.099-.684.37-.798 18.266-7.693 37.573-12.833 57.386-15.277.299-.03.603.175.723.502 4.034 11.028 14.64 18.437 26.393 18.437s22.358-7.409 26.391-18.438c.119-.327.425-.541.723-.501 19.813 2.444 39.12 7.584 57.386 15.277.271.114.431.457.37.798-2.06 11.604 3.417 23.359 13.627 29.251 10.179 5.875 23.064 4.766 32.066-2.761.274-.229.646-.264.883-.082 7.851 5.975 15.393 12.564 22.414 19.587 7.023 7.023 13.613 14.564 19.586 22.414.182.238.147.61-.082.885-7.526 9.001-8.636 21.887-2.761 32.064 5.893 10.211 17.646 15.687 29.252 13.627.344-.063.684.1.798.37 7.694 18.267 12.834 37.574 15.276 57.388.037.298-.174.601-.501.721-11.027 4.032-18.437 14.638-18.437 26.391s7.409 22.358 18.438 26.391c.326.12.537.423.5.721z" fill="#ff9800"/></svg>