<?xml version="1.0" encoding="UTF-8" standalone="no"?>
<svg
   xmlns:dc="http://purl.org/dc/elements/1.1/"
   xmlns:cc="http://creativecommons.org/ns#"
   xmlns:rdf="http://www.w3.org/1999/02/22-rdf-syntax-ns#"
   xmlns:svg="http://www.w3.org/2000/svg"
   xmlns="http://www.w3.org/2000/svg"
   xmlns:sodipodi="http://sodipodi.sourceforge.net/DTD/sodipodi-0.dtd"
   xmlns:inkscape="http://www.inkscape.org/namespaces/inkscape"
   height="17.621706pt"
   viewBox="0 0 33.750004 17.621706"
   width="33.750004pt"
   version="1.1"
   id="svg10"
   sodipodi:docname="toggle.svg"
   inkscape:version="1.0 (4035a4fb49, 2020-05-01)">
  <metadata
     id="metadata16">
    <rdf:RDF>
      <cc:Work
         rdf:about="">
        <dc:format>image/svg+xml</dc:format>
        <dc:type
           rdf:resource="http://purl.org/dc/dcmitype/StillImage" />
        <dc:title></dc:title>
      </cc:Work>
    </rdf:RDF>
  </metadata>
  <defs
     id="defs14" />
  <sodipodi:namedview
     inkscape:document-rotation="0"
     pagecolor="#ffffff"
     bordercolor="#666666"
     borderopacity="1"
     objecttolerance="10"
     gridtolerance="10"
     guidetolerance="10"
     inkscape:pageopacity="0"
     inkscape:pageshadow="2"
     inkscape:window-width="1366"
     inkscape:window-height="705"
     id="namedview12"
     showgrid="false"
     inkscape:zoom="6.3046875"
     inkscape:cx="-1.2348911"
     inkscape:cy="-0.28690903"
     inkscape:window-x="-8"
     inkscape:window-y="-8"
     inkscape:window-maximized="1"
     inkscape:current-layer="svg10"
     fit-margin-top="0"
     fit-margin-left="0"
     fit-margin-right="0"
     fit-margin-bottom="0" />
  <g
     id="g2410">
    <path
       fill-opacity="0.994"
       stroke-width="0.0646266"
       fill="#008080"
       id="path2441"
       d="m 21.84332,1.2279456 c -3.206714,1.0288447 -5.527949,4.0345896 -5.527949,7.5826229 0,3.5485545 2.321327,6.5543835 5.528138,7.5831915 H 7.5827201 C 3.402686,16.39376 2.0709154e-6,12.99256 2.0709154e-6,8.8107578 2.0709154e-6,4.629209 3.402686,1.2279456 7.5827201,1.2279456 Z" />
    <path
       fill-opacity="0.994"
       stroke-miterlimit="4"
       stroke-width="1.69646"
       stroke="#008080"
       fill="#fafafa"
       id="path2443"
       d="m 16.976523,8.8105634 c 0,4.3978396 3.565074,7.9629136 7.962916,7.9629136 4.39728,0 7.962336,-3.565074 7.962336,-7.9629136 0,-4.3972812 -3.565056,-7.96233584 -7.962336,-7.96233584 -4.397842,0 -7.962916,3.56505464 -7.962916,7.96233584 z m 0,0" />
  </g>
  <g
     id="g2420">
    <path
       sodipodi:nodetypes="cscsssc"
       d="m 11.906684,1.227946 c 3.206712,1.028845 5.527948,4.03459 5.527948,7.582624 0,3.548555 -2.321327,6.554382 -5.528138,7.583191 h 14.260788 c 4.180035,0 7.582719,-3.4012 7.582719,-7.583002 0,-4.181549 -3.402684,-7.582813 -7.582719,-7.582813 z"
       style="fill:#4d4d4d;stroke-width:0.0646264"
       id="path2" />
    <path
       style="fill:none;stroke:#4d4d4d;stroke-width:1.69645;stroke-miterlimit:4;stroke-dasharray:none;stroke-opacity:1"
       id="path4"
       fill="#fafafa"
       d="m 16.773479,8.810564 c 0,4.39784 -3.565074,7.962915 -7.9629137,7.962915 -4.3972812,0 -7.9623366,-3.565075 -7.9623366,-7.962915 0,-4.39728 3.5650554,-7.962336 7.9623366,-7.962336 4.3978397,0 7.9629137,3.565056 7.9629137,7.962336 z m 0,0" />
  </g>
</svg>
